<svg class='new' style='background-color: white;' width="188" height="20" viewBox="0 0 188 20" fill="white"  xmlns="http://www.w3.org/2000/svg">
  <path
    d="M0.728 19V1.12H7.4C8.616 1.12 9.688 1.344 10.616 1.792C11.56 2.224 12.296 2.864 12.824 3.712C13.352 4.544 13.616 5.56 13.616 6.76C13.616 7.944 13.344 8.96 12.8 9.808C12.272 10.64 11.544 11.28 10.616 11.728C9.688 12.176 8.616 12.4 7.4 12.4H3.992V19H0.728ZM3.992 9.52H7.448C8.04 9.52 8.552 9.408 8.984 9.184C9.416 8.944 9.752 8.616 9.992 8.2C10.232 7.784 10.352 7.304 10.352 6.76C10.352 6.2 10.232 5.72 9.992 5.32C9.752 4.904 9.416 4.584 8.984 4.36C8.552 4.12 8.04 4 7.448 4H3.992V9.52ZM16.0265 19V0.831999H19.1705V19H16.0265ZM26.0334 19.288C25.1214 19.288 24.3294 19.136 23.6574 18.832C22.9854 18.528 22.4654 18.096 22.0974 17.536C21.7294 16.96 21.5454 16.296 21.5454 15.544C21.5454 14.824 21.7054 14.184 22.0254 13.624C22.3454 13.048 22.8414 12.568 23.5134 12.184C24.1854 11.8 25.0334 11.528 26.0574 11.368L30.3294 10.672V13.072L26.6574 13.696C26.0334 13.808 25.5694 14.008 25.2654 14.296C24.9614 14.584 24.8094 14.96 24.8094 15.424C24.8094 15.872 24.9774 16.232 25.3134 16.504C25.6654 16.76 26.0974 16.888 26.6094 16.888C27.2654 16.888 27.8414 16.752 28.3374 16.48C28.8494 16.192 29.2414 15.8 29.5134 15.304C29.8014 14.808 29.9454 14.264 29.9454 13.672V10.312C29.9454 9.752 29.7214 9.288 29.2734 8.92C28.8414 8.536 28.2654 8.344 27.5454 8.344C26.8734 8.344 26.2734 8.528 25.7454 8.896C25.2334 9.248 24.8574 9.72 24.6174 10.312L22.0494 9.064C22.3054 8.376 22.7054 7.784 23.2494 7.288C23.8094 6.776 24.4654 6.376 25.2174 6.088C25.9694 5.8 26.7854 5.656 27.6654 5.656C28.7374 5.656 29.6814 5.856 30.4974 6.256C31.3134 6.64 31.9454 7.184 32.3934 7.888C32.8574 8.576 33.0894 9.384 33.0894 10.312V19H30.1134V16.768L30.7854 16.72C30.4494 17.28 30.0494 17.752 29.5854 18.136C29.1214 18.504 28.5934 18.792 28.0014 19C27.4094 19.192 26.7534 19.288 26.0334 19.288ZM41.7129 19.144C40.2409 19.144 39.0969 18.744 38.2809 17.944C37.4809 17.128 37.0809 15.984 37.0809 14.512V8.752H34.8249V5.944H35.0649C35.7049 5.944 36.2009 5.776 36.5529 5.44C36.9049 5.104 37.0809 4.616 37.0809 3.976V2.968H40.2249V5.944H43.2249V8.752H40.2249V14.344C40.2249 14.776 40.2969 15.144 40.4409 15.448C40.6009 15.752 40.8409 15.984 41.1609 16.144C41.4969 16.304 41.9209 16.384 42.4329 16.384C42.5449 16.384 42.6729 16.376 42.8169 16.36C42.9769 16.344 43.1289 16.328 43.2729 16.312V19C43.0489 19.032 42.7929 19.064 42.5049 19.096C42.2169 19.128 41.9529 19.144 41.7129 19.144ZM47.1869 19V8.752H44.8829V5.944H47.1869V5.512C47.1869 4.52 47.3869 3.68 47.7869 2.992C48.2029 2.288 48.7789 1.752 49.5149 1.384C50.2509 1.016 51.1229 0.831999 52.1309 0.831999C52.3229 0.831999 52.5309 0.847999 52.7549 0.879999C52.9949 0.895999 53.1949 0.92 53.3549 0.951999V3.664C53.1949 3.632 53.0429 3.616 52.8989 3.616C52.7709 3.6 52.6509 3.592 52.5389 3.592C51.8349 3.592 51.2909 3.752 50.9069 4.072C50.5229 4.376 50.3309 4.856 50.3309 5.512V5.944H53.2349V8.752H50.3309V19H47.1869ZM61.4339 19.288C60.1539 19.288 58.9859 18.992 57.9299 18.4C56.8899 17.808 56.0579 17 55.4339 15.976C54.8259 14.952 54.5219 13.784 54.5219 12.472C54.5219 11.16 54.8259 9.992 55.4339 8.968C56.0579 7.944 56.8899 7.136 57.9299 6.544C58.9699 5.952 60.1379 5.656 61.4339 5.656C62.7139 5.656 63.8739 5.952 64.9139 6.544C65.9539 7.136 66.7779 7.944 67.3859 8.968C68.0099 9.976 68.3219 11.144 68.3219 12.472C68.3219 13.784 68.0099 14.952 67.3859 15.976C66.7619 17 65.9299 17.808 64.8899 18.4C63.8499 18.992 62.6979 19.288 61.4339 19.288ZM61.4339 16.408C62.1379 16.408 62.7539 16.24 63.2819 15.904C63.8259 15.568 64.2499 15.104 64.5539 14.512C64.8739 13.904 65.0339 13.224 65.0339 12.472C65.0339 11.704 64.8739 11.032 64.5539 10.456C64.2499 9.864 63.8259 9.4 63.2819 9.064C62.7539 8.712 62.1379 8.536 61.4339 8.536C60.7139 8.536 60.0819 8.712 59.5379 9.064C58.9939 9.4 58.5619 9.864 58.2419 10.456C57.9379 11.032 57.7859 11.704 57.7859 12.472C57.7859 13.224 57.9379 13.904 58.2419 14.512C58.5619 15.104 58.9939 15.568 59.5379 15.904C60.0819 16.24 60.7139 16.408 61.4339 16.408ZM70.7062 19V5.944H73.6582V8.848L73.4182 8.416C73.7222 7.44 74.1942 6.76 74.8342 6.376C75.4902 5.992 76.2742 5.8 77.1862 5.8H77.9542V8.584H76.8262C75.9302 8.584 75.2102 8.864 74.6662 9.424C74.1222 9.968 73.8502 10.736 73.8502 11.728V19H70.7062ZM79.6828 19V5.944H82.6348V8.968L82.2988 8.464C82.5388 7.52 83.0188 6.816 83.7388 6.352C84.4588 5.888 85.3068 5.656 86.2828 5.656C87.3548 5.656 88.2988 5.936 89.1148 6.496C89.9308 7.056 90.4588 7.792 90.6988 8.704L89.8108 8.776C90.2108 7.736 90.8108 6.96 91.6108 6.448C92.4108 5.92 93.3308 5.656 94.3708 5.656C95.2988 5.656 96.1228 5.864 96.8428 6.28C97.5788 6.696 98.1548 7.28 98.5708 8.032C98.9868 8.768 99.1948 9.624 99.1948 10.6V19H96.0508V11.344C96.0508 10.768 95.9468 10.272 95.7388 9.856C95.5308 9.44 95.2428 9.12 94.8748 8.896C94.5068 8.656 94.0588 8.536 93.5308 8.536C93.0348 8.536 92.5948 8.656 92.2108 8.896C91.8268 9.12 91.5308 9.44 91.3228 9.856C91.1148 10.272 91.0108 10.768 91.0108 11.344V19H87.8668V11.344C87.8668 10.768 87.7628 10.272 87.5548 9.856C87.3468 9.44 87.0508 9.12 86.6668 8.896C86.2988 8.656 85.8588 8.536 85.3468 8.536C84.8508 8.536 84.4108 8.656 84.0268 8.896C83.6428 9.12 83.3468 9.44 83.1388 9.856C82.9308 10.272 82.8268 10.768 82.8268 11.344V19H79.6828ZM106.384 19V1.12H109.648V16.12H117.304V19H106.384ZM123.112 19.288C122.2 19.288 121.408 19.136 120.736 18.832C120.064 18.528 119.544 18.096 119.176 17.536C118.808 16.96 118.624 16.296 118.624 15.544C118.624 14.824 118.784 14.184 119.104 13.624C119.424 13.048 119.92 12.568 120.592 12.184C121.264 11.8 122.112 11.528 123.136 11.368L127.408 10.672V13.072L123.736 13.696C123.112 13.808 122.648 14.008 122.344 14.296C122.04 14.584 121.888 14.96 121.888 15.424C121.888 15.872 122.056 16.232 122.392 16.504C122.744 16.76 123.176 16.888 123.688 16.888C124.344 16.888 124.92 16.752 125.416 16.48C125.928 16.192 126.32 15.8 126.592 15.304C126.88 14.808 127.024 14.264 127.024 13.672V10.312C127.024 9.752 126.8 9.288 126.352 8.92C125.92 8.536 125.344 8.344 124.624 8.344C123.952 8.344 123.352 8.528 122.824 8.896C122.312 9.248 121.936 9.72 121.696 10.312L119.128 9.064C119.384 8.376 119.784 7.784 120.328 7.288C120.888 6.776 121.544 6.376 122.296 6.088C123.048 5.8 123.864 5.656 124.743 5.656C125.816 5.656 126.76 5.856 127.576 6.256C128.392 6.64 129.024 7.184 129.472 7.888C129.936 8.576 130.168 9.384 130.168 10.312V19H127.192V16.768L127.864 16.72C127.528 17.28 127.128 17.752 126.664 18.136C126.2 18.504 125.672 18.792 125.08 19C124.488 19.192 123.832 19.288 123.112 19.288ZM137.729 19.288C136.721 19.288 135.841 19.064 135.089 18.616C134.353 18.168 133.785 17.544 133.385 16.744C133.001 15.944 132.809 15.008 132.809 13.936V5.944H135.953V13.672C135.953 14.216 136.057 14.696 136.265 15.112C136.489 15.512 136.801 15.832 137.201 16.072C137.617 16.296 138.081 16.408 138.593 16.408C139.105 16.408 139.561 16.296 139.961 16.072C140.361 15.832 140.673 15.504 140.897 15.088C141.121 14.672 141.233 14.176 141.233 13.6V5.944H144.377V19H141.401V16.432L141.665 16.888C141.361 17.688 140.857 18.288 140.153 18.688C139.465 19.088 138.657 19.288 137.729 19.288ZM147.3 19V5.944H150.252V8.512L150.012 8.056C150.316 7.272 150.812 6.68 151.5 6.28C152.204 5.864 153.02 5.656 153.948 5.656C154.908 5.656 155.756 5.864 156.492 6.28C157.244 6.696 157.828 7.28 158.244 8.032C158.66 8.768 158.868 9.624 158.868 10.6V19H155.724V11.344C155.724 10.768 155.612 10.272 155.388 9.856C155.164 9.44 154.852 9.12 154.452 8.896C154.068 8.656 153.612 8.536 153.084 8.536C152.572 8.536 152.116 8.656 151.716 8.896C151.316 9.12 151.004 9.44 150.78 9.856C150.556 10.272 150.444 10.768 150.444 11.344V19H147.3ZM167.815 19.288C166.519 19.288 165.351 18.992 164.311 18.4C163.287 17.792 162.479 16.976 161.887 15.952C161.295 14.912 160.999 13.744 160.999 12.448C160.999 11.152 161.295 9.992 161.887 8.968C162.479 7.944 163.287 7.136 164.311 6.544C165.351 5.952 166.519 5.656 167.815 5.656C168.743 5.656 169.607 5.824 170.407 6.16C171.207 6.48 171.895 6.928 172.471 7.504C173.063 8.064 173.487 8.736 173.743 9.52L170.983 10.72C170.743 10.064 170.335 9.536 169.759 9.136C169.199 8.736 168.551 8.536 167.815 8.536C167.127 8.536 166.511 8.704 165.967 9.04C165.439 9.376 165.023 9.84 164.719 10.432C164.415 11.024 164.263 11.704 164.263 12.472C164.263 13.24 164.415 13.92 164.719 14.512C165.023 15.104 165.439 15.568 165.967 15.904C166.511 16.24 167.127 16.408 167.815 16.408C168.567 16.408 169.223 16.208 169.783 15.808C170.343 15.408 170.743 14.872 170.983 14.2L173.743 15.448C173.487 16.184 173.071 16.848 172.495 17.44C171.919 18.016 171.231 18.472 170.431 18.808C169.631 19.128 168.759 19.288 167.815 19.288ZM176.128 19V0.831999H179.272V8.512L178.84 8.056C179.144 7.272 179.64 6.68 180.328 6.28C181.032 5.864 181.848 5.656 182.776 5.656C183.736 5.656 184.584 5.864 185.32 6.28C186.072 6.696 186.656 7.28 187.072 8.032C187.488 8.768 187.696 9.624 187.696 10.6V19H184.552V11.344C184.552 10.768 184.44 10.272 184.216 9.856C183.992 9.44 183.68 9.12 183.28 8.896C182.896 8.656 182.44 8.536 181.912 8.536C181.4 8.536 180.944 8.656 180.544 8.896C180.144 9.12 179.832 9.44 179.608 9.856C179.384 10.272 179.272 10.768 179.272 11.344V19H176.128Z"
    fill="black"   
  />
</svg>